<svg xmlns="http://www.w3.org/2000/svg" viewBox="0 0 192 192">
  <title>BBG</title>
  <style>:root { --cp-bg: #292929; --cp-accent: #dedede; --cp-memory: #dedede; --cp-attention: #b0b0b0; }</style>
  <rect width="192" height="192" fill="var(--cp-bg)"/>
  <g fill="none" stroke="var(--cp-accent)" stroke-width="1.6" stroke-linecap="round" stroke-linejoin="round" transform="translate(24 14) scale(4.5)">
    <path d="M16 7c-2-3-6-2-6 1-3 0-4 4-2 6-1 3 1 5 4 5M16 7c2-3 6-2 6 1 3 0 4 4 2 6 1 3-1 5-4 5M16 7v12m-5-8 3 2m7-2-3 2M8 25h16m-16-3v6m16-6v6M5 23v4m22-4v4"/>
  </g>
  <circle cx="74" cy="168" r="4" fill="var(--cp-memory)"/>
  <circle cx="96" cy="168" r="4" fill="var(--cp-attention)"/>
  <circle cx="118" cy="168" r="4" fill="var(--cp-accent)"/>
</svg>
